<?xml version="1.0" encoding="UTF-8"?>
<svg id="Layer_2" data-name="Layer 2" xmlns="http://www.w3.org/2000/svg" viewBox="0 0 425.9 177.81">
  <defs>
    <style>
      .cls-1, .cls-2 {
        stroke: #000;
        stroke-miterlimit: 10;
        stroke-width: 2px;
      }

      .cls-3 {
        isolation: isolate;
      }

      .cls-2 {
        fill: #fff;
      }
    </style>
  </defs>
  <g id="Layer_1-2" data-name="Layer 1">
    <g>
      <g>
        <rect class="cls-1" x="148.27" y="78.41" width="272.05" height="71.06" transform="translate(-17.33 60.76) rotate(-11.84)"/>
        <rect class="cls-2" x="146.38" y="69.42" width="272.05" height="71.06" transform="translate(-15.53 60.18) rotate(-11.84)"/>
      </g>
      <g class="cls-3">
        <g class="cls-3">
          <path d="M187.25,107.49l12.29-2.58,8.26,18.74.55-20.59,11.78-2.47,8.78,37.93-7.85,1.65-6.09-24.5.51,25.67-7.23,1.52-10.29-23.86,4.49,25.08-7.97,1.67-7.25-38.25Z"/>
        </g>
        <g class="cls-3">
          <path d="M233.74,97.75l13.14-2.75,16.24,36.36-10.3,2.16-3.02-7.32-5.97,1.25.17,7.92-10.64,2.23.38-39.85ZM247.7,121.04l-5.03-13.77.93,14.63,4.1-.86Z"/>
        </g>
        <g class="cls-3">
          <path d="M267.29,113.59l-13.02-20.15,10.64-2.23,5.78,9.44.88-10.84,10.19-2.14-3.66,23.65,3.39,16.18-10.81,2.27-3.39-16.18Z"/>
          <path d="M285.75,86.84l11.27-2.36,3.17,15.1,5.75-1.21-3.17-15.1,11.32-2.37,7.99,38.09-11.32,2.37-3.42-16.32-5.75,1.21,3.42,16.32-11.27,2.36-7.99-38.09Z"/>
          <path d="M321.02,79.45l21.56-4.52,1.31,6.25-10.3,2.16,1.78,8.51,7.68-1.61,1.36,6.49-7.68,1.61,2.23,10.63,10.36-2.17,1.3,6.21-21.62,4.53-7.99-38.09Z"/>
          <path d="M347.71,73.85l12.29-2.58,8.26,18.74.56-20.59,11.78-2.47,8.78,37.93-7.85,1.65-6.09-24.5.51,25.67-7.23,1.51-10.29-23.86,4.49,25.08-7.97,1.67-7.25-38.25Z"/>
        </g>
      </g>
    </g>
    <g>
      <g>
        <rect class="cls-1" x="7.51" y="37.66" width="274.62" height="71.63" transform="translate(-11.99 31.28) rotate(-11.84)"/>
        <rect class="cls-2" x="5.61" y="28.6" width="274.62" height="71.63" transform="translate(-10.17 30.69) rotate(-11.84)"/>
      </g>
      <g class="cls-3">
        <g class="cls-3">
          <path d="M46.9,66.99l12.49-2.62,8.37,18.88.6-20.76,11.97-2.51,8.86,38.23-7.98,1.67-6.14-24.69.48,25.88-7.34,1.54-10.41-24.04,4.52,25.28-8.1,1.7-7.3-38.55Z"/>
        </g>
        <g class="cls-3">
          <path d="M94.15,57.08l13.36-2.8,16.43,36.64-10.47,2.19-3.06-7.38-6.07,1.27.16,7.98-10.81,2.27.45-40.18ZM108.3,80.54l-5.08-13.88.92,14.75,4.16-.87Z"/>
        </g>
        <g class="cls-3">
          <path d="M124.56,77.48l-2.7-12.89c-1.69-8.06.79-14.07,11.72-16.36,10.81-2.27,15.12,1.88,16.46,8.28l.58,2.75-11.28,2.36-.77-3.65c-.36-1.71-.86-3.83-3.52-3.27s-2.43,2.79-2.09,4.45l3.94,18.82c.36,1.71,1.39,3.77,4.05,3.21,2.6-.55,2.9-2.88,2.54-4.59l-1.05-5.02-3.76.79-1.12-5.36,14.05-2.95,4.23,20.19-7.63,1.6-1.16-2.67c-.81,2.2-2.64,4.12-6.63,4.95-9.95,2.09-14.23-2.81-15.87-10.63Z"/>
          <path d="M154.17,44.5l8.1-1.7,12.01,14.65-3.45-16.45,9.48-1.99,8.05,38.39-7.86,1.65-12.23-16.29,3.79,18.06-9.83,2.06-8.05-38.39Z"/>
          <path d="M187.13,37.59l21.92-4.59,1.32,6.3-10.47,2.19,1.8,8.58,7.81-1.64,1.37,6.54-7.81,1.64,2.25,10.71,10.52-2.21,1.31,6.26-21.97,4.61-8.05-38.39Z"/>
          <path d="M219.13,38.16l-6.82,1.43-1.46-6.97,25.1-5.26,1.46,6.97-6.77,1.42,6.59,31.43-11.51,2.41-6.59-31.43Z"/>
        </g>
      </g>
    </g>
  </g>
</svg>